<svg height="496pt" viewBox="0 0 496 496" width="496pt" xmlns="http://www.w3.org/2000/svg"><path d="m64 136h144v72h-144zm0 0" fill="#f0bc5e"/><path d="m184 352h-96c-13.230469 0-24-10.769531-24-24v-48c0-13.230469 10.769531-24 24-24h53.335938l42.664062-32v32c13.230469 0 24 10.769531 24 24v48c0 13.230469-10.769531 24-24 24zm0 0" fill="#f0bc5e"/><path d="m496 248c0-136.753906-111.246094-248-248-248-42.753906 0-84.800781 11.097656-121.808594 32h-54.191406c-22.054688 0-40 17.945312-40 40v54.191406c-20.902344 37.007813-32 79.046875-32 121.808594 0 136.753906 111.246094 248 248 248h152v-28.777344c0-5.429687 1.863281-10.75 5.265625-14.992187l17.964844-22.46875c3.226562-4.035157 5.511719-8.683594 6.976562-13.585938 42.425781-45.917969 65.792969-105.550781 65.792969-168.175781zm-248-232c127.921875 0 232 104.078125 232 232 0 51.535156-16.910156 100.921875-48 141.304688v-93.304688c0-13.230469-10.769531-24-24-24-3.160156 0-6.160156.648438-8.929688 1.761719-2.757812-10.203125-12.007812-17.761719-23.070312-17.761719-3.160156 0-6.160156.648438-8.929688 1.761719-2.757812-10.203125-12.007812-17.761719-23.070312-17.761719-2.816406 0-5.488281.574219-8 1.472656v-17.679687c6.703125 5.078125 14.960938 8.207031 24 8.207031 20.238281 0 36.839844-15.167969 39.464844-34.695312 19.136718-6.542969 32.535156-24.640626 32.535156-45.304688 0-20.625-13.28125-38.808594-32.359375-45.375-2.632813-19.519531-19.410156-34.625-39.640625-34.625-13.070312 0-24.695312 6.304688-32 16.023438-7.304688-9.71875-18.929688-16.023438-32-16.023438 0-22.054688-17.945312-40-40-40h-92.496094c26.792969-10.464844 55.457032-16 84.496094-16zm-23.65625 306.734375 10.214844 61.265625h-174.34375c-4.359375-6-8.4375-12.214844-12.214844-18.632812v-253.367188h197.742188c-13.15625 8.679688-21.742188 23.503906-21.742188 40 0 20.664062 13.398438 38.761719 32.535156 45.304688 2.273438 16.886718 14.945313 30.519531 31.464844 33.886718v141.433594c-1.503906-1.546875-2.574219-3.535156-2.992188-5.800781l-14.328124-78.824219h-21.230469c-14.035157 0-25.449219 11.414062-25.449219 25.449219v5.109375c0 1.394531.121094 2.792968.34375 4.175781zm63.65625-122.734375v14.527344c-9.289062-3.3125-16-12.113282-16-22.527344 0-10.960938 7.398438-20.511719 17.992188-23.238281l-3.984376-15.503907c-13.824218 3.558594-24.289062 14.125-28.230468 27.277344-10.609375-5.3125-17.777344-16.222656-17.777344-28.535156 0-15.175781 10.792969-28.367188 25.65625-31.359375l6.609375-1.328125-.1875-6.746094c-.023437-.4375-.046875-.8125-.078125-.566406 0-13.230469 10.769531-24 24-24s24 10.769531 24 24v65.472656c-2.511719-.898437-5.183594-1.472656-8-1.472656-13.230469 0-24 10.769531-24 24zm102.34375-79.359375c14.863281 2.992187 25.65625 16.183594 25.65625 31.359375 0 12.34375-7.199219 23.28125-17.863281 28.585938-4.953125-16.472657-20.074219-28.585938-38.136719-28.585938h-8v16h8c13.230469 0 24 10.769531 24 24s-10.769531 24-24 24-24-10.769531-24-24v-80c0-13.230469 10.769531-24 24-24s24 10.769531 24.039062 23.296875l-.304687 8.015625zm-318.34375-72.640625h184c13.230469 0 24 10.769531 24 24v3.472656c-9.160156 4.03125-16.449219 11.367188-20.488281 20.527344h-211.511719v-24c0-13.230469 10.769531-24 24-24zm-40 115.511719v168.984375c-10.289062-26.207032-16-54.6875-16-84.496094 0-29.039062 5.535156-57.703125 16-84.488281zm40.953125 236.488281h164.269531l1.519532 9.097656c1.128906 6.734375 3.960937 13.101563 8.210937 18.414063l13.488281 16.863281c-3.722656 2.273438-7.984375 3.625-12.441406 3.625h-117.367188c-21.746093-12.808594-41.207031-29.054688-57.679687-48zm175.046875 80c-29.808594 0-58.289062-5.710938-84.496094-16h84.496094c7.832031 0 15.382812-2.34375 21.824219-6.542969 1.367187 3.0625 2.175781 6.382813 2.175781 9.765625v12.777344zm168-75.222656c0 5.429687-1.863281 10.75-5.265625 14.992187l-17.964844 22.46875c-5.648437 7.066407-8.769531 15.9375-8.769531 24.984375v12.777344h-96v-12.777344c0-9.046875-3.121094-17.917968-8.769531-24.992187l-19.789063-24.726563c-2.546875-3.175781-4.25-7-4.921875-11.039062l-14.398437-86.351563c-.082032-.511719-.121094-1.035156-.121094-1.5625v-5.109375c0-5.210937 4.230469-9.441406 9.449219-9.441406h7.871093l11.945313 65.6875c2.351563 12.929688 13.589844 22.3125 26.734375 22.3125h8v-192c0-4.414062 3.585938-8 8-8s8 3.585938 8 8v152h16v-88c0-4.414062 3.585938-8 8-8s8 3.585938 8 8v88h16v-72c0-4.414062 3.585938-8 8-8s8 3.585938 8 8v72h16v-56c0-4.414062 3.585938-8 8-8s8 3.585938 8 8zm0 0"/><path d="m136 64h56v16h-56zm0 0"/><path d="m136 416h56v16h-56zm0 0"/><path d="m208 64h16v16h-16zm0 0"/><path d="m104 64h16v16h-16zm0 0"/><path d="m64 128h144v16h-144zm0 0"/><path d="m64 160h144v16h-144zm0 0"/><path d="m192 192h16v16h-16zm0 0"/><path d="m64 192h112v16h-112zm0 0"/></svg>